<?xml version="1.0" encoding="UTF-8"?>
<svg width="145px" height="32px" viewBox="0 0 145 32" version="1.1" xmlns="http://www.w3.org/2000/svg" xmlns:xlink="http://www.w3.org/1999/xlink">
    <title>Logo/Zeppelin Corporate/Naked/Medium/Default</title>
    <g id="Logo/Zeppelin-Corporate/Naked/Medium/Default" stroke="none" stroke-width="1" fill="none" fill-rule="evenodd">
        <g transform="translate(0.000000, 4.000000)" fill="#27166F">
            <path d="M143.08744,20.1999526 C143.079988,19.8971912 143.065083,19.6531189 142.946773,19.3797021 C142.887618,19.2613922 142.791666,19.0694881 142.533154,18.8701313 C142.023118,18.4565127 141.409676,18.4267023 141.21032,18.4117972 C141.055678,18.3973578 140.900571,18.3894394 140.737546,18.3894394 C139.643879,18.3894394 139.045343,18.7001192 138.712771,19.0326909 C138.580022,19.1728928 138.328497,19.4612148 138.328497,19.9712513 C138.328497,20.8133938 138.979201,21.1454998 139.237247,21.2493702 C139.444522,21.3378697 139.681142,21.3821194 139.895404,21.4193824 L141.24013,21.5963814 C141.491189,21.6331785 141.838666,21.677894 142.008678,21.9065954 C142.052462,21.9582977 142.11907,22.0766075 142.11907,22.2470855 C142.11907,22.3206798 142.112083,22.4538948 142.008678,22.6015492 C141.95651,22.6751435 141.882916,22.7492036 141.801403,22.800906 C141.409676,23.0445125 140.737546,23.0445125 140.663952,23.0445125 C139.932201,23.0445125 139.518582,22.7934534 139.356023,22.5200365 C139.23026,22.3281324 139.23026,22.0840601 139.222808,22.0174526 L138.144511,22.0104658 C138.181308,22.3649295 138.218105,22.6751435 138.39557,22.9853575 C138.816641,23.6952166 139.836249,23.8577762 140.604331,23.8577762 C140.81114,23.8577762 141.018416,23.8498578 141.217772,23.8279658 C141.513081,23.7986213 141.779511,23.7539057 142.067833,23.6579536 C142.348703,23.554549 143.25,23.1777275 143.25,22.1506676 C143.25,21.8991428 143.190845,21.7146912 143.161035,21.6261917 C143.05763,21.3229645 142.806105,20.9093459 142.067833,20.7244285 C141.912726,20.6801788 141.757619,20.657821 141.594594,20.6284764 L140.441772,20.4733694 C140.249867,20.4514775 139.880498,20.3997751 139.703034,20.3182624 C139.473867,20.2074052 139.429617,20.0005959 139.429617,19.8971912 C139.429617,19.6163218 139.65925,19.4532964 139.725391,19.4095124 C139.976451,19.2464871 140.471582,19.1803453 140.774343,19.1803453 C140.840951,19.1803453 141.712904,19.1584534 141.964428,19.7197264 C142.023118,19.8380363 142.038023,19.9414409 142.045941,20.1999526 L143.08744,20.1999526 Z M130.917829,18.5380254 L130.917829,23.7240954 L131.893187,23.7240954 L131.893187,20.1263583 L131.85639,19.2320477 L132.351055,20.0299404 C132.483804,20.2367498 132.609567,20.4435591 132.750234,20.6508342 C132.979402,20.9978454 133.223008,21.3378697 133.459628,21.6848808 C133.688329,22.025371 133.917496,22.3649295 134.15365,22.7124065 C134.383283,23.051965 134.61245,23.3924552 134.84907,23.7394663 L136.32608,23.7394663 L136.32608,18.5599174 L135.41733,18.5599174 L135.41733,21.988108 L135.454592,22.8745003 L134.841151,21.8772508 C134.649247,21.581942 134.46433,21.2787148 134.264973,20.983406 C134.087508,20.7169759 133.895604,20.4435591 133.718139,20.1780606 C133.58539,19.9782381 133.459628,19.7858682 133.334331,19.5869772 C133.104698,19.2464871 132.853639,18.8920233 132.609567,18.5445464 L130.917829,18.5380254 Z M126.388053,18.375 C127.297269,18.375 127.814292,18.6484168 128.117053,18.8328684 C128.316876,18.9586308 128.501327,19.1062852 128.6569,19.28375 C129.084958,19.7714288 129.277328,20.518085 129.277328,21.1608707 C129.277328,22.1213231 128.856257,23.051965 127.984304,23.5252044 C127.799387,23.6281433 127.540875,23.7464531 127.082541,23.8279658 C126.750435,23.8871207 126.513815,23.8945733 126.366161,23.8945733 C126.218041,23.8945733 125.464863,23.864763 124.917564,23.6360617 C123.897957,23.1926327 123.417731,22.1949174 123.417731,21.1236078 C123.417731,19.9633329 123.986922,19.2912026 124.341386,19.0033464 C124.659518,18.7443689 125.331648,18.375 126.388053,18.375 Z M126.3806,19.1952505 C126.129541,19.1952505 125.383351,19.2464871 124.903125,19.8524757 C124.733112,20.0741902 124.53329,20.4291197 124.53329,21.0639871 C124.53329,21.5227871 124.652066,22.047263 124.932469,22.4240845 C125.102481,22.645799 125.537992,23.0598834 126.313993,23.0598834 C126.757422,23.0598834 127.2451,22.934121 127.563233,22.645799 C127.799387,22.4459764 128.176208,21.9513109 128.176208,21.1534181 C128.176208,20.7323469 128.080256,20.2665601 127.858542,19.9190832 C127.673624,19.6386795 127.230661,19.1952505 126.3806,19.1952505 Z M120.676575,23.7320137 L121.77723,23.7320137 L121.77723,18.5524648 L120.676575,18.5524648 L120.676575,23.7320137 Z M113.997193,18.5445464 L113.997193,19.4164992 L116.154717,19.4164992 L116.154717,23.7394663 L117.255371,23.7394663 L117.255371,19.4318702 L119.413362,19.4318702 L119.413362,18.5445464 L113.997193,18.5445464 Z M111.765608,21.2940857 C111.758156,21.7594067 111.735798,22.2172751 111.410679,22.5866441 C111.23368,22.7785482 110.900642,23.0375257 110.258788,23.0445125 C109.31231,23.0445125 108.942941,22.4091793 108.840002,22.0766075 C108.765476,21.8623456 108.758489,21.6112865 108.751036,21.3746669 L108.751036,18.5380254 L107.628025,18.5380254 L107.628025,21.2493702 C107.642464,21.6410969 107.649917,22.0398104 107.775679,22.4240845 C107.893523,22.7934534 108.070988,23.0151679 108.181845,23.1334777 C108.714239,23.7171086 109.497227,23.8205132 109.733847,23.8498578 C109.874048,23.864763 110.103215,23.8796682 110.243417,23.8796682 C110.516834,23.8796682 110.80469,23.8354184 110.886203,23.8205132 C110.99706,23.7986213 111.292835,23.7539057 111.596062,23.6211565 C111.854108,23.5028466 112.09818,23.3253819 112.290084,23.1185726 C112.81456,22.5419285 112.837384,21.7962039 112.844371,21.5451448 C112.851823,21.4338218 112.859276,21.3304171 112.859276,21.2270124 L112.859276,18.5445464 L111.765608,18.5445464 L111.765608,21.2940857 Z M102.322247,18.5524648 L102.322247,23.7464531 L106.394155,23.7464531 L106.394155,22.8894055 L103.446191,22.8894055 L103.446191,18.5524648 L102.322247,18.5524648 Z M97.7934025,18.375 C98.7016867,18.375 99.2191758,18.6484168 99.522403,18.8328684 C99.721294,18.9586308 99.9066771,19.1062852 100.061318,19.28375 C100.489842,19.7714288 100.682212,20.518085 100.682212,21.1608707 C100.682212,22.1213231 100.261141,23.051965 99.389188,23.5252044 C99.2042706,23.6281433 98.9452932,23.7464531 98.4878906,23.8279658 C98.1553188,23.8871207 97.9186991,23.8945733 97.7710447,23.8945733 C97.6233903,23.8945733 96.8692815,23.864763 96.3229136,23.6360617 C95.3033064,23.1926327 94.8226144,22.1949174 94.8226144,21.1236078 C94.8226144,19.9633329 95.3918059,19.2912026 95.7462696,19.0033464 C96.0639362,18.7443689 96.7365323,18.375 97.7934025,18.375 Z M97.7854841,19.1952505 C97.534425,19.1952505 96.7882346,19.2464871 96.3080084,19.8524757 C96.1379963,20.0741902 95.9381737,20.4291197 95.9381737,21.0639871 C95.9381737,21.5227871 96.0564836,22.047263 96.3378188,22.4240845 C96.5073652,22.645799 96.9438074,23.0598834 97.7193424,23.0598834 C98.1627714,23.0598834 98.6504502,22.934121 98.9681167,22.645799 C99.2042706,22.4459764 99.5810921,21.9513109 99.5810921,21.1534181 C99.5810921,20.7323469 99.4851401,20.2665601 99.2634256,19.9190832 C99.078974,19.6386795 98.6350792,19.1952505 97.7854841,19.1952505 Z M93.2491867,20.1999526 C93.2412683,19.8971912 93.2263631,19.6531189 93.1085191,19.3797021 C93.0488984,19.2613922 92.9529463,19.0694881 92.6949004,18.8701313 C92.1848639,18.4565127 91.5714227,18.4267023 91.372066,18.4117972 C91.216959,18.3973578 91.061852,18.3894394 90.8992924,18.3894394 C89.805625,18.3894394 89.207089,18.7001192 88.8745172,19.0326909 C88.741768,19.1728928 88.4902432,19.4612148 88.4902432,19.9712513 C88.4902432,20.8133938 89.1409473,21.1454998 89.3989932,21.2493702 C89.6062683,21.3378697 89.8424222,21.3821194 90.0566841,21.4193824 L91.4018763,21.5963814 C91.6529354,21.6331785 91.9999465,21.677894 92.1704245,21.9065954 C92.2142085,21.9582977 92.280816,22.0766075 92.280816,22.2470855 C92.280816,22.3206798 92.2733634,22.4538948 92.1704245,22.6015492 C92.1182564,22.6751435 92.0441963,22.7492036 91.9631494,22.800906 C91.5714227,23.0445125 90.8992924,23.0445125 90.8252323,23.0445125 C90.093947,23.0445125 89.6803284,22.7934534 89.517303,22.5200365 C89.3920064,22.3281324 89.3920064,22.0840601 89.3845538,22.0174526 L88.3057916,22.0104658 C88.3430545,22.3649295 88.3798517,22.6751435 88.5568507,22.9853575 C88.9779219,23.6952166 89.9975292,23.8577762 90.7660774,23.8577762 C90.9728867,23.8577762 91.1801618,23.8498578 91.3790528,23.8279658 C91.6748274,23.7986213 91.9407916,23.7539057 92.2291136,23.6579536 C92.5099831,23.554549 93.4117463,23.1777275 93.4117463,22.1506676 C93.4117463,21.8991428 93.3521256,21.7146912 93.322781,21.6261917 C93.2189105,21.3229645 92.9678515,20.9093459 92.2291136,20.7244285 C92.0740066,20.6801788 91.9188996,20.657821 91.75634,20.6284764 L90.6035178,20.4733694 C90.4116136,20.4514775 90.0417789,20.3997751 89.8643142,20.3182624 C89.6356128,20.2074052 89.5908973,20.0005959 89.5908973,19.8971912 C89.5908973,19.6163218 89.8205302,19.4532964 89.8871377,19.4095124 C90.137731,19.2464871 90.6333281,19.1803453 90.9360895,19.1803453 C91.002697,19.1803453 91.8746499,19.1584534 92.125709,19.7197264 C92.1848639,19.8380363 92.1997691,19.9414409 92.2072216,20.1999526 L93.2491867,20.1999526 Z M79.794004,18.5524648 L79.794004,23.7394663 L83.9613983,23.7394663 L83.9613983,22.8894055 L80.9095633,22.8894055 L80.9095633,21.426835 L83.6805289,21.426835 L83.6805289,20.5772399 L80.9095633,20.5772399 L80.9095633,19.4020598 L83.8062913,19.4020598 L83.8062913,18.5524648 L79.794004,18.5524648 Z M70.7274644,18.5524648 C71.1639066,19.4239518 71.5994172,20.3038231 72.027941,21.1753101 C72.4494781,22.0328236 72.8626309,22.8894055 73.2767154,23.7464531 L72.0801092,23.7464531 L71.5332755,22.608536 L68.3631307,22.608536 L67.8093102,23.7320137 L66.6490353,23.7320137 L69.2942384,18.5524648 L70.7274644,18.5524648 Z M78.5452296,18.5445464 L78.5452296,19.4318702 L76.3877053,19.4318702 L76.3877053,23.7394663 L75.2865853,23.7394663 L75.2865853,19.4164992 L73.129061,19.4164992 L73.129061,18.5445464 L78.5452296,18.5445464 Z M69.9738213,19.3359181 L68.7692967,21.7594067 L71.1415488,21.7594067 L69.9738213,19.3359181 Z M61.4620338,18.5524648 L61.4620338,23.7394663 L65.6294281,23.7394663 L65.6294281,22.8894055 L62.5775931,22.8894055 L62.5775931,21.426835 L65.3490244,21.426835 L65.3490244,20.5772399 L62.5775931,20.5772399 L62.5775931,19.4020598 L65.4738553,19.4020598 L65.4738553,18.5524648 L61.4620338,18.5524648 Z M57.1912348,18.5445464 C57.7380685,18.5524648 58.2774495,18.5599174 58.7651283,18.8035238 C58.9570325,18.9073943 59.4964135,19.2245951 59.4964135,19.9190832 C59.4964135,20.5325244 59.1270446,20.8650961 58.9421273,20.9908585 C58.7427705,21.1236078 58.4619011,21.2046547 58.4027462,21.2195599 C58.8242832,21.3602275 58.986377,21.4561795 59.1270446,21.6112865 C59.2970568,21.8106433 59.333854,22.0328236 59.3636643,22.2764301 L59.4745216,23.3845368 C59.5043319,23.554549 59.5262239,23.5987987 59.6291628,23.7320137 L58.4549143,23.7320137 C58.3435913,23.3179293 58.3435913,23.2373482 58.3291519,22.9853575 L58.3067941,22.5866441 C58.2998073,22.5419285 58.2849021,22.3500244 58.2331998,22.1949174 C58.055735,21.7072386 57.6272112,21.6848808 57.1763296,21.6848808 L55.7649957,21.6848808 L55.7649957,23.7320137 L54.6419837,23.7320137 L54.6419837,18.5445464 Z M57.1763296,19.3946073 L55.7575431,19.3946073 L55.7575431,20.8427384 L57.3463418,20.8427384 C57.6863661,20.8208464 57.9965801,20.7984886 58.2182946,20.5395112 C58.3734016,20.3625122 58.3808542,20.1855132 58.3808542,20.0965479 C58.3808542,19.9633329 58.3361387,19.6605715 58.0035669,19.5129171 C57.8116628,19.4239518 57.5974008,19.4095124 57.1763296,19.3946073 Z M53.1789475,20.1999526 C53.1714949,20.1263583 53.11234,19.7495368 52.9865775,19.4831067 C52.8761861,19.2613922 52.742971,19.1211904 52.6763635,19.0471303 C52.5436143,18.9073943 52.3880415,18.8035238 52.3288866,18.7667267 C51.7601609,18.4117972 50.8733029,18.4117972 50.7480063,18.4117972 C50.4596843,18.4117972 50.1420177,18.4485943 50.060505,18.4565127 C48.708326,18.6409643 48.221113,19.3503575 47.9989327,19.882286 C47.9029806,20.1184399 47.7627788,20.5325244 47.7553262,21.1454998 C47.7553262,22.0766075 48.0361956,22.8894055 48.8340884,23.3924552 C49.5583868,23.842871 50.3637322,23.842871 50.637149,23.842871 C51.1839827,23.842871 51.6567563,23.7613583 52.1295299,23.5401096 C52.5953166,23.3253819 52.8095786,23.0817754 52.9348752,22.8894055 C53.1640423,22.5274891 53.1933869,22.1357625 53.2087578,21.9955606 L52.1001853,21.9955606 C52.0480172,22.20237 51.9967806,22.3868215 51.8486604,22.5717389 C51.5682568,22.9112974 51.0358625,23.0077153 50.5998861,23.0077153 C50.1345651,23.0077153 49.6543389,22.8824187 49.3366723,22.5354075 C48.8788039,22.025371 48.863433,21.2787148 48.863433,21.1017158 C48.863433,20.2446681 49.2258151,19.5278223 50.0828627,19.3135604 C50.2677801,19.2613922 50.482042,19.2395003 50.6739462,19.2395003 C51.3982446,19.2395003 51.8267684,19.5795246 51.9595177,19.8226653 C52.0480172,19.9633329 52.0554698,20.1407977 52.0554698,20.1999526 L53.1789475,20.1999526 Z M39.2435386,18.5524648 L39.2435386,23.7394663 L43.4109329,23.7394663 L43.4109329,22.8894055 L40.3595637,22.8894055 L40.3595637,21.426835 L43.1300635,21.426835 L43.1300635,20.5772399 L40.3595637,20.5772399 L40.3595637,19.4020598 L43.2558259,19.4020598 L43.2558259,18.5524648 L39.2435386,18.5524648 Z M32.5790614,21.6634547 C32.5268933,21.8399878 32.4751909,22.0174526 32.4309412,22.1949174 C32.3717863,22.4166319 32.3275365,22.645799 32.2832868,22.8745003 C32.239037,22.6607042 32.2017741,22.4538948 32.1505376,22.2391671 C32.105822,22.0398104 32.0541197,21.833001 32.0024174,21.6331785 C31.8915601,21.1902153 31.7737161,20.7542389 31.662393,20.325715 C31.5813461,19.9931433 31.5002992,19.6605715 31.4113339,19.3279997 C31.3451922,19.0769407 31.2711321,18.8179632 31.197072,18.5599174 L30,18.5599174 L30.8351557,21.1902153 L31.6330484,23.7464531 L32.9852275,23.7464531 L33.9088826,20.1184399 L34.0788948,19.3503575 L34.2857042,20.2292972 L35.2312513,23.7613583 L36.5391806,23.7613583 C36.664943,23.3700974 36.7832529,22.9709181 36.9010969,22.5717389 C37.0636565,22.0328236 37.2192293,21.4780715 37.3743363,20.9312378 L38.076277,18.5818093 L37.0417645,18.5818093 L36.1698117,21.9806555 L35.9555498,22.8894055 L35.7412878,21.9736687 C35.622978,21.5297739 35.4976813,21.0937974 35.3863583,20.6508342 C35.2829536,20.2516549 35.1870016,19.8524757 35.0835969,19.4532964 C35.0095368,19.1584534 34.9284899,18.8626788 34.8399904,18.5669042 L33.4212039,18.5599174 L32.5790614,21.6634547 Z" id="Claim"></path>
            <path d="M131.930786,1.54696276e-07 L138.897389,8.73498316 L138.897389,1.54696276e-07 L143.25,1.54696276e-07 L143.25,14.625 L138.897389,14.625 L131.864993,5.79915509 L131.864993,14.625 L127.500717,14.625 L127.500717,1.54696276e-07 L131.930786,1.54696276e-07 Z M119.225717,14.625 L124.19753,14.625 L124.19753,1.54696276e-07 L119.225717,1.54696276e-07 L119.225717,14.625 Z M107.218242,1.54696276e-07 L109.88123,1.54696276e-07 L112.183989,1.54696276e-07 L112.183989,5.86694843 L112.183989,11.7254225 L114.826445,11.7254225 L117.565491,11.7254225 L117.565491,14.625 L112.319774,14.625 L107.218242,14.625 L107.218242,1.54696276e-07 Z M92.4717207,1.54696276e-07 L98.2218515,1.54696276e-07 L104.083971,1.54696276e-07 L104.083971,1.45190743 L104.083971,2.90240235 L100.703325,2.90240235 L97.4398001,2.90240235 L97.4398001,4.38443999 L97.4398001,5.86694843 L100.46255,5.86694843 L103.663548,5.86694843 L103.663548,7.31979728 L103.663548,8.76935062 L100.46255,8.76935062 L97.4398001,8.76935062 L97.4398001,10.2862265 L97.4398001,11.7042371 L104.495994,11.7042371 L104.495994,13.214522 L104.495994,14.625 L98.4294964,14.625 L92.4717207,14.625 L92.4717207,1.54696276e-07 Z M82.7420467,0.000426183899 C83.2289249,0.00420288672 85.5598116,0.0413285325 86.6571966,0.405347809 C89.3929766,1.30172636 90.5203252,3.3185781 90.5203252,5.52374466 C90.5203252,7.65923474 89.2441256,9.730227 86.7817836,10.632255 C85.8448151,10.9792251 84.4743587,11.1505915 83.717038,11.1505915 C83.4296015,11.1505915 82.9144555,11.156241 82.3773784,11.1670691 L82.3773784,14.6245292 L77.3001104,14.6245292 L77.3001104,-1.24344979e-14 L80.529572,0.00188330291 Z M83.3677601,2.9557999 L83.2042827,2.95576576 L83.192093,2.95607207 L82.3773784,2.95607207 L82.3773784,8.02409471 L83.192093,8.0099711 C83.192093,8.0099711 84.499556,8.02503628 85.0940271,7.424312 C85.6656339,6.84100684 85.7094959,6.1696645 85.7094959,5.32789725 C85.7094959,4.48424685 85.5135165,3.7549977 84.7631951,3.24796004 C84.3908341,3.00326847 83.6932697,2.96142727 83.3677601,2.9557999 Z M67.6209649,0.000426183899 C68.1085557,0.00420288672 70.4427456,0.0413285325 71.539714,0.405347809 C74.2722277,1.30172636 75.4042424,3.3185781 75.4042424,5.52374466 C75.4042424,7.65923474 74.1266429,9.730227 71.6638343,10.632255 C70.7240661,10.9792251 69.3536097,11.1505915 68.5948892,11.1505915 C68.3083859,11.1505915 67.795573,11.156241 67.2617623,11.1670691 L67.2617623,14.6245292 L62.1798281,14.6245292 L62.1798281,-1.24344979e-14 L65.4120894,0.00188330291 Z M68.2483454,2.9557999 L68.0844979,2.95576576 L68.0722773,2.95607207 L67.2617623,2.95607207 L67.2617623,8.02409471 L68.0722773,8.0099711 C68.0722773,8.0099711 69.3788071,8.02503628 69.9737448,7.424312 C70.5453515,6.84100684 70.5878138,6.1696645 70.5878138,5.32789725 C70.5878138,4.48424685 70.3951006,3.7549977 69.643846,3.24796004 C69.2732348,3.00326847 68.574533,2.96142727 68.2483454,2.9557999 Z M47.3861782,1.54696276e-07 L53.1349092,1.54696276e-07 L58.9979615,1.54696276e-07 L58.9979615,1.45190743 L58.9979615,2.90240235 L55.6140494,2.90240235 L52.353791,2.90240235 L52.353791,4.38443999 L52.353791,5.86694843 L55.3798073,5.86694843 L58.5780055,5.86694843 L58.5780055,7.31979728 L58.5780055,8.76935062 L55.3798073,8.76935062 L52.353791,8.76935062 L52.353791,10.2862265 L52.353791,11.7042371 L59.4034524,11.7042371 L59.4034524,13.214522 L59.4034524,14.625 L53.340221,14.625 L47.3861782,14.625 L47.3861782,1.54696276e-07 Z M30.4148232,1.54696276e-07 L44.5001473,1.54696276e-07 L44.5001473,2.84637869 L36.6437039,11.7240102 L44.5001473,11.7240102 L44.5001473,14.625 L30,14.625 L30,11.7240102 L37.7584537,2.84637869 L30.4148232,2.84637869 L30.4148232,1.54696276e-07 Z" id="ZEPPELIN"></path>
            <path d="M-2.5243549e-29,9.42452056 L-2.5243549e-29,24 L16.6092924,24 L16.6092924,18.747803 L5.8907076,18.747803 L5.8907076,14.5703238 L10.5150946,9.42452056 L-2.5243549e-29,9.42452056 Z M22.5,1.687539e-13 L22.5,14.5750107 L11.9849054,14.5750107 L16.6092924,9.42967621 L16.6092924,5.25219701 L5.8907076,5.25219701 L5.8907076,1.687539e-13 L22.5,1.687539e-13 Z" id="Logotype"></path>
        </g>
    </g>
</svg>